<svg width="1280" height="384" viewBox="0 0 1280 384" fill="none" xmlns="http://www.w3.org/2000/svg" role="img" aria-label="Nexploy — the self-hosted alternative to Vercel and Netlify, powered by Docker">
  <defs>
    <clipPath id="round"><rect width="1280" height="384" rx="20"/></clipPath>
    <pattern id="dots" width="20" height="20" patternUnits="userSpaceOnUse">
      <circle cx="1" cy="1" r="1" fill="#FFFFFF" fill-opacity="0.09"/>
    </pattern>
    <radialGradient id="hubGlow" cx="0.5" cy="0.5" r="0.5">
      <stop offset="0" stop-color="#155DFC" stop-opacity="0.3"/>
      <stop offset="0.55" stop-color="#155DFC" stop-opacity="0.09"/>
      <stop offset="1" stop-color="#155DFC" stop-opacity="0"/>
    </radialGradient>
    <radialGradient id="topGlow" cx="0.5" cy="0.5" r="0.5">
      <stop offset="0" stop-color="#FFFFFF" stop-opacity="0.05"/>
      <stop offset="1" stop-color="#FFFFFF" stop-opacity="0"/>
    </radialGradient>
    <filter id="glow" x="-70%" y="-70%" width="240%" height="240%">
      <feGaussianBlur stdDeviation="11"/>
    </filter>
    <linearGradient id="edge-clone" gradientUnits="userSpaceOnUse" x1="240" y1="110" x2="470" y2="156"><stop offset="0" stop-color="#2b7fff" stop-opacity="0.95"/><stop offset="0.55" stop-color="#2b7fff" stop-opacity="0.5"/><stop offset="1" stop-color="#2b7fff" stop-opacity="0"/></linearGradient><linearGradient id="edge-build" gradientUnits="userSpaceOnUse" x1="240" y1="284" x2="385" y2="250"><stop offset="0" stop-color="#ff6900" stop-opacity="0.95"/><stop offset="0.55" stop-color="#ff6900" stop-opacity="0.5"/><stop offset="1" stop-color="#ff6900" stop-opacity="0"/></linearGradient><linearGradient id="edge-deploy" gradientUnits="userSpaceOnUse" x1="1040" y1="110" x2="826" y2="156"><stop offset="0" stop-color="#00c951" stop-opacity="0.95"/><stop offset="0.55" stop-color="#00c951" stop-opacity="0.5"/><stop offset="1" stop-color="#00c951" stop-opacity="0"/></linearGradient><linearGradient id="edge-notify" gradientUnits="userSpaceOnUse" x1="1040" y1="284" x2="895" y2="250"><stop offset="0" stop-color="#f43f5e" stop-opacity="0.95"/><stop offset="0.55" stop-color="#f43f5e" stop-opacity="0.5"/><stop offset="1" stop-color="#f43f5e" stop-opacity="0"/></linearGradient><linearGradient id="edge-version" gradientUnits="userSpaceOnUse" x1="640" y1="280" x2="640" y2="250"><stop offset="0" stop-color="#efb100" stop-opacity="0.95"/><stop offset="0.55" stop-color="#efb100" stop-opacity="0.5"/><stop offset="1" stop-color="#efb100" stop-opacity="0"/></linearGradient>
  </defs>

  <g clip-path="url(#round)">
    <rect width="1280" height="384" fill="#0A0A0A"/>
    <rect width="1280" height="384" fill="url(#dots)"/>
    <ellipse cx="640" cy="158" rx="440" ry="190" fill="url(#hubGlow)"/>
    <ellipse cx="640" cy="0" rx="640" ry="150" fill="url(#topGlow)"/>

    <g><path d="M240,110 C440,110 440,158 640,158" fill="none" stroke="url(#edge-clone)" stroke-width="2" stroke-linecap="round"/><path d="M240,284 C440,284 440,158 640,158" fill="none" stroke="url(#edge-build)" stroke-width="2" stroke-linecap="round"/><path d="M1040,110 C840,110 840,158 640,158" fill="none" stroke="url(#edge-deploy)" stroke-width="2" stroke-linecap="round"/><path d="M1040,284 C840,284 840,158 640,158" fill="none" stroke="url(#edge-notify)" stroke-width="2" stroke-linecap="round"/><path d="M640,280 C640,219 640,219 640,158" fill="none" stroke="url(#edge-version)" stroke-width="2" stroke-linecap="round"/></g>
    <g><circle cx="240" cy="110" r="7" fill="#2b7fff" stroke="#171717" stroke-width="2.5"/><circle cx="240" cy="284" r="7" fill="#ff6900" stroke="#171717" stroke-width="2.5"/><circle cx="1040" cy="110" r="7" fill="#00c951" stroke="#171717" stroke-width="2.5"/><circle cx="1040" cy="284" r="7" fill="#f43f5e" stroke="#171717" stroke-width="2.5"/><circle cx="640" cy="280" r="7" fill="#efb100" stroke="#171717" stroke-width="2.5"/></g>
    <g><g><rect x="160" y="70" width="80" height="80" rx="22" fill="#2b7fff" fill-opacity="0.24" filter="url(#glow)"/><rect x="160" y="70" width="80" height="80" rx="22" fill="#171717" stroke="#2b7fff" stroke-width="2"/><rect x="178" y="88" width="44" height="44" rx="14" fill="#2b7fff" fill-opacity="0.12"/><g transform="translate(188,98)" fill="none" stroke="#2b7fff" stroke-width="1.7" stroke-linecap="round" stroke-linejoin="round"><line x1="6" y1="3" x2="6" y2="15"/><circle cx="18" cy="6" r="3"/><circle cx="6" cy="18" r="3"/><path d="M18 9a9 9 0 0 1-9 9"/></g></g><g><rect x="160" y="244" width="80" height="80" rx="22" fill="#ff6900" fill-opacity="0.24" filter="url(#glow)"/><rect x="160" y="244" width="80" height="80" rx="22" fill="#171717" stroke="#ff6900" stroke-width="2"/><rect x="178" y="262" width="44" height="44" rx="14" fill="#ff6900" fill-opacity="0.12"/><g transform="translate(188,272)" fill="none" stroke="#ff6900" stroke-width="1.7" stroke-linecap="round" stroke-linejoin="round"><path d="M14 2H6a2 2 0 0 0-2 2v16a2 2 0 0 0 2 2h12a2 2 0 0 0 2-2V8z"/><polyline points="14 2 14 8 20 8"/><circle cx="11.5" cy="14" r="2.5"/><line x1="15" y1="17.5" x2="13.3" y2="15.8"/></g></g><g><rect x="1040" y="70" width="80" height="80" rx="22" fill="#00c951" fill-opacity="0.24" filter="url(#glow)"/><rect x="1040" y="70" width="80" height="80" rx="22" fill="#171717" stroke="#00c951" stroke-width="2"/><rect x="1058" y="88" width="44" height="44" rx="14" fill="#00c951" fill-opacity="0.12"/><g transform="translate(1068,98)" fill="none" stroke="#00c951" stroke-width="1.7" stroke-linecap="round" stroke-linejoin="round"><polygon points="12 2 2 7 12 12 22 7 12 2"/><polyline points="2 17 12 22 22 17"/><polyline points="2 12 12 17 22 12"/></g></g><g><rect x="1040" y="244" width="80" height="80" rx="22" fill="#f43f5e" fill-opacity="0.24" filter="url(#glow)"/><rect x="1040" y="244" width="80" height="80" rx="22" fill="#171717" stroke="#f43f5e" stroke-width="2"/><rect x="1058" y="262" width="44" height="44" rx="14" fill="#f43f5e" fill-opacity="0.12"/><g transform="translate(1068,272)" fill="none" stroke="#f43f5e" stroke-width="1.7" stroke-linecap="round" stroke-linejoin="round"><path d="M18 16.98h-5.99c-1.1 0-1.95.94-2.48 1.9A4 4 0 0 1 2 17c.01-.7.2-1.4.57-2"/><path d="m6 17 3.13-5.78c.53-.97.1-2.18-.5-3.1a4 4 0 1 1 6.89-4.06"/><path d="m12 6 3.13 5.73C15.66 12.7 16.9 13 18 13a4 4 0 0 1 0 8"/></g></g><g><rect x="600" y="280" width="80" height="80" rx="22" fill="#efb100" fill-opacity="0.24" filter="url(#glow)"/><rect x="600" y="280" width="80" height="80" rx="22" fill="#171717" stroke="#efb100" stroke-width="2"/><rect x="618" y="298" width="44" height="44" rx="14" fill="#efb100" fill-opacity="0.12"/><g transform="translate(628,308)" fill="none" stroke="#efb100" stroke-width="1.7" stroke-linecap="round" stroke-linejoin="round"><path d="M20.59 13.41 13.42 20.58a2 2 0 0 1-2.83 0L2 12V2h10l8.59 8.59a2 2 0 0 1 0 2.82z"/><circle cx="7.5" cy="7.5" r="1.5"/></g></g></g>

    <rect width="1280" height="46" fill="#171717"/>
    <line x1="0" y1="46" x2="1280" y2="46" stroke="#FFFFFF" stroke-opacity="0.08" stroke-width="1"/>
    <text x="28" y="23" dominant-baseline="central" font-family="'Geist Mono','SFMono-Regular',ui-monospace,Menlo,Monaco,Consolas,'Liberation Mono','Courier New',monospace" font-size="12.5" letter-spacing="0.4">
      <tspan fill="#FAFAFA" fill-opacity="0.8">nexploy</tspan><tspan fill="#FFFFFF" fill-opacity="0.2"> / </tspan><tspan fill="#A1A1A1" fill-opacity="0.85">self-hosted, powered by Docker</tspan>
    </text>
    <text x="1252" y="23" text-anchor="end" dominant-baseline="central" font-family="'Geist Mono','SFMono-Regular',ui-monospace,Menlo,Monaco,Consolas,'Liberation Mono','Courier New',monospace" font-size="11.5" letter-spacing="0.2">
      <tspan fill="#FFFFFF" fill-opacity="0.3">one install command</tspan><tspan fill="#FFFFFF" fill-opacity="0.18"> · </tspan><tspan fill="#2b7fff" fill-opacity="0.9">$</tspan><tspan fill="#FFFFFF" fill-opacity="0.6"> curl -fsSL https://nexploy.app/install.sh | sh</tspan>
    </text>

    <g transform="translate(462 122)">
      <g transform="scale(0.1383)" fill="#FAFAFA">
        <path d="M238.51.17c7.92-.91,23.2,1.96,30.01,5.79,24.03,13.5,49.22,28.39,72.96,42.22l75.35,43.86,25.33,14.73c8.74,5.11,17.38,9.7,24.8,16.7,12.33,11.49,19.55,27.43,20.04,44.28.4,12.97.01,27.9,0,41,.11,32.11-.05,64.22-.47,96.32l-.22,53.11c-.04,8.56.05,17.48-.34,26.03-.1,2.24-1.75,5.09-3.39,6.62-7.3,6.84-16.65,9.79-26.37,9.98-9.51.05-20.29-3.13-28.3-8.14-7.45-4.66-13.9-11.1-20.03-17.19-8-7.95-15.92-15.91-23.88-23.88l-67.24-67.27-64.51-64.5c-21.09-21.08-39.31-40.14-62.74-58.96-29.26-23.5-61.9-36.39-99.92-32.39C55.46,132.06,21.32,151.54.02,178.41c-.34-19.66,3.69-35.85,16.54-51.09,12.12-14.38,34-24.93,50.37-34.46l68.51-39.9,51.65-30.17C204.73,12.39,217.54,2.22,238.51.17Z"/>
        <path d="M98.69,193.66c31.29-2.02,49.47,15.92,69.75,36.18l25.79,25.8,99.78,99.71,43.63,43.53c37.94,37.82,75.42,81.09,135.18,59.91-1.91,2.63-3.94,5.35-6.09,7.78-2.92,3.31-6.24,6.25-9.87,8.76-12.45,8.58-33.19,20.13-46.59,28.13l-31.65,18.82c-5.99,3.56-11.95,7.17-18.03,10.57-5.06,2.83-8.48,3.12-12.95-.88-6.78-6.06-13.12-12.71-19.6-19.11l-39.96-39.46-101.31-100.38-29.8-29.55c-4.2-4.16-11.63-12.05-15.92-15.34-6.16-1.32-7.01,4.36-7.01,8.94-.01,9.32-.03,18.66-.04,27.98l-.05,92.28c0,14.88.15,29.75.06,44.63-.05,8.2-4.9,12.66-12.83,8.37-8.52-4.62-16.83-9.62-25.18-14.54-8.47-4.95-16.88-9.99-25.24-15.13-6.13-3.74-12.21-7.17-17.78-11.76-11.96-9.71-19.42-23.9-20.64-39.26-.64-7.41-.28-19.52-.27-27.22,0-17.71.08-35.42.27-53.13l.07-54.86c.02-28.25-2.07-53.36,18.1-76.21,13.44-15.24,27.89-22.83,48.16-24.57Z"/>
      </g>
      <text x="100" y="37" dominant-baseline="central" font-family="'Geist','Inter',-apple-system,BlinkMacSystemFont,'Segoe UI',Roboto,Helvetica,Arial,sans-serif" font-size="64" font-weight="700" letter-spacing="2" fill="#FAFAFA">Nexploy</text>
    </g>

    <text x="640" y="240" text-anchor="middle" font-family="'Geist','Inter',-apple-system,BlinkMacSystemFont,'Segoe UI',Roboto,Helvetica,Arial,sans-serif" font-size="26" font-weight="400" letter-spacing="0.1" fill="#A1A1A1">The self-hosted alternative to Vercel &amp; Netlify, powered by Docker</text>
  </g>
  <rect x="0.75" y="0.75" width="1278.5" height="382.5" rx="19.25" fill="none" stroke="#FFFFFF" stroke-opacity="0.1" stroke-width="1.5"/>
</svg>
