<svg xmlns="http://www.w3.org/2000/svg" viewBox="-2.5 -0.5 15.5 16" fill="currentColor">
    <path d="M10.2739 5.00225C10.2406 3.65803 9.69276 2.40012 8.73149 1.46036C7.7711 0.521495 6.50331 0.00266977 5.16188 0H5.1184C2.31666 0 0.0245998 2.27242 0.000202081 5.08635C-0.011775 6.45683 0.509006 7.75034 1.46673 8.72881C2.42489 9.70772 3.70467 10.2532 5.07493 10.2653H6.63639V7.54654H5.15389C4.51112 7.55544 3.90384 7.30982 3.44428 6.85997C2.98427 6.40967 2.72698 5.8063 2.71988 5.16066C2.70525 3.82978 3.77076 2.73473 5.09622 2.71871H5.1601C6.48335 2.71871 7.56572 3.80175 7.57326 5.1304V9.87617C7.57326 11.1897 6.5042 12.2709 5.18982 12.2879C4.56036 12.283 3.9686 12.0329 3.52368 11.5826L3.17856 11.2337L3.17723 11.2351L1.79011 13.685C2.71589 14.53 3.90162 14.9972 5.1601 15.0066H5.2293C6.57828 14.9874 7.84385 14.4477 8.79315 13.4861C9.74155 12.525 10.2681 11.2502 10.2752 9.89396V5.0027L10.2739 5.00225Z"
          fill="currentColor"/>
</svg>
